<?xml version="1.0" encoding="UTF-8" standalone="no"?>
<!-- Created with Inkscape (http://www.inkscape.org/) -->

<svg
   width="12.305809mm"
   height="17.225128mm"
   viewBox="0 0 12.305809 17.225128"
   version="1.1"
   id="svg1"
   xml:space="preserve"
   xmlns:inkscape="http://www.inkscape.org/namespaces/inkscape"
   xmlns:sodipodi="http://sodipodi.sourceforge.net/DTD/sodipodi-0.dtd"
   xmlns="http://www.w3.org/2000/svg"
   xmlns:svg="http://www.w3.org/2000/svg"><sodipodi:namedview
     id="namedview1"
     pagecolor="#ffffff"
     bordercolor="#000000"
     borderopacity="0.25"
     inkscape:showpageshadow="2"
     inkscape:pageopacity="0.0"
     inkscape:pagecheckerboard="0"
     inkscape:deskcolor="#d1d1d1"
     inkscape:document-units="mm" /><defs
     id="defs1" /><g
     inkscape:label="Layer 1"
     inkscape:groupmode="layer"
     id="layer1"
     transform="translate(-47.283876,-117.55182)"><rect
       style="fill:none;stroke:#000000;stroke-width:2.1;stroke-linecap:round;stroke-linejoin:round;stroke-dasharray:none;paint-order:markers fill stroke"
       id="rect1"
       width="10.205812"
       height="10.037819"
       x="48.333874"
       y="123.68913"
       ry="1.301976"
       inkscape:export-filename="MBTA ELEVATOR.svg"
       inkscape:export-xdpi="96"
       inkscape:export-ydpi="96" /><rect
       style="fill:#ffffff;fill-opacity:1;stroke:none;stroke-width:1;stroke-linecap:round;stroke-linejoin:round;paint-order:markers fill stroke"
       id="rect2"
       width="9.6032972"
       height="9.1618862"
       x="48.635132"
       y="124.12709"
       ry="0" /><path
       d="m 50.331128,125.53433 a 0.58022659,0.58022659 0 1 1 -0.580227,0.58023 0.58022659,0.58022659 0 0 1 0.580227,-0.58023 z m 0.733419,2.18456 v 4.38985 a 0.32209869,0.32209869 0 0 1 -0.320976,0.32098 v 0 a 0.32153755,0.32153755 0 0 1 -0.320976,-0.32098 v -2.58129 h -0.174518 v 2.58129 a 0.32209869,0.32209869 0 0 1 -0.320976,0.32098 v 0 a 0.32209869,0.32209869 0 0 1 -0.320976,-0.32098 v -4.38985 h -0.11223 v 1.61329 c 0,0.32153 -0.486514,0.32153 -0.486514,0 v -1.73619 c 0,-0.28058 0.09483,-0.48034 0.267666,-0.61054 0.297409,-0.22446 1.814191,-0.22446 2.111599,0 0.172834,0.1302 0.26879,0.32828 0.268229,0.61054 v 1.73619 c 0,0.32153 -0.487077,0.32153 -0.487077,0 v -1.61329 z"
       id="path1"
       style="stroke-width:0.264583" /><path
       d="m 53.436779,125.53433 a 0.58022659,0.58022659 0 1 1 -0.580227,0.58023 0.58022659,0.58022659 0 0 1 0.580227,-0.58023 z m 0.733419,2.18456 v 4.38985 a 0.32209869,0.32209869 0 0 1 -0.320976,0.32098 v 0 a 0.32153755,0.32153755 0 0 1 -0.320976,-0.32098 v -2.58129 h -0.174518 v 2.58129 a 0.32209869,0.32209869 0 0 1 -0.320976,0.32098 v 0 a 0.32209869,0.32209869 0 0 1 -0.320976,-0.32098 v -4.38985 h -0.11223 v 1.61329 c 0,0.32153 -0.486514,0.32153 -0.486514,0 v -1.73619 c 0,-0.28058 0.09483,-0.48034 0.267666,-0.61054 0.297409,-0.22446 1.814191,-0.22446 2.111599,0 0.172834,0.1302 0.26879,0.32828 0.268229,0.61054 v 1.73619 c 0,0.32153 -0.487077,0.32153 -0.487077,0 v -1.61329 z"
       id="path1-7"
       style="stroke-width:0.264583" /><path
       d="m 56.54243,125.53433 a 0.58022659,0.58022659 0 1 1 -0.580227,0.58023 0.58022659,0.58022659 0 0 1 0.580227,-0.58023 z m 0.733419,2.18456 v 4.38985 a 0.32209869,0.32209869 0 0 1 -0.320976,0.32098 v 0 a 0.32153755,0.32153755 0 0 1 -0.320976,-0.32098 v -2.58129 h -0.174518 v 2.58129 a 0.32209869,0.32209869 0 0 1 -0.320976,0.32098 v 0 a 0.32209869,0.32209869 0 0 1 -0.320976,-0.32098 v -4.38985 h -0.11223 v 1.61329 c 0,0.32153 -0.486514,0.32153 -0.486514,0 v -1.73619 c 0,-0.28058 0.09483,-0.48034 0.267666,-0.61054 0.297409,-0.22446 1.814191,-0.22446 2.111599,0 0.172834,0.1302 0.26879,0.32828 0.268229,0.61054 v 1.73619 c 0,0.32153 -0.487077,0.32153 -0.487077,0 v -1.61329 z"
       id="path1-7-6"
       style="stroke-width:0.264583" /><path
       id="rect1-8"
       style="fill:#000000;fill-opacity:1;stroke:none;stroke-width:1.99999;stroke-linecap:round;stroke-linejoin:round;paint-order:markers stroke fill"
       d="m 50.753416,117.55189 -0.01147,0.0112 -0.191942,0.19195 -1.989366,1.98936 0.602373,0.60219 1.164379,-1.16419 v 2.68178 h 0.414556 0.02276 0.414554 v -2.68178 l 1.16438,1.16419 0.602369,-0.60219 -1.989363,-1.98936 -0.19194,-0.19195 z" /><path
       id="rect1-8-0"
       style="fill:#000000;fill-opacity:1;stroke:none;stroke-width:1.99999;stroke-linecap:round;stroke-linejoin:round;paint-order:markers stroke fill"
       d="m 56.120297,121.86425 0.01127,-0.0113 0.192001,-0.19192 1.989354,-1.98937 -0.602381,-0.60218 -1.16437,1.1642 -6e-6,-2.68179 h -0.414563 l -0.0229,-7e-5 h -0.414556 l 1.3e-5,2.68178 -1.164377,-1.1642 -0.602378,0.6022 1.989362,1.98937 0.191903,0.19198 z" /></g></svg>
